<?xml version="1.0" standalone="no"?>
<!DOCTYPE svg PUBLIC "-//W3C//DTD SVG 20010904//EN"
 "http://www.w3.org/TR/2001/REC-SVG-20010904/DTD/svg10.dtd">
<svg version="1.0" xmlns="http://www.w3.org/2000/svg"
 width="1080.000000pt" height="1080.000000pt" viewBox="0 0 1080.000000 1080.000000"
 preserveAspectRatio="xMidYMid meet">
<metadata>
Created by potrace 1.14, written by Peter Selinger 2001-2017
</metadata>
<g transform="translate(0.000000,1080.000000) scale(0.100000,-0.100000)"
fill="#000000" stroke="none">
<path d="M0 5400 l0 -5400 5400 0 5400 0 0 5400 0 5400 -5400 0 -5400 0 0
-5400z m2510 1510 l0 -370 -160 0 -160 0 0 370 0 370 160 0 160 0 0 -370z
m978 -487 l-3 -858 -135 -3 c-198 -4 -180 -21 -180 168 l0 160 -330 0 -330 0
0 -160 c0 -189 18 -172 -180 -168 l-135 3 -3 318 -2 317 490 0 490 0 0 540 0
540 160 0 160 0 -2 -857z m787 815 c9 -24 158 -407 331 -852 239 -615 312
-811 302 -818 -22 -13 -304 -10 -315 5 -5 6 -86 227 -178 490 -100 282 -172
472 -176 464 -4 -7 -81 -222 -170 -478 -89 -255 -166 -470 -172 -476 -12 -16
-312 -18 -322 -3 -4 7 545 1446 641 1678 18 44 38 40 59 -10z m1497 23 c250
-64 378 -228 378 -486 0 -196 -92 -354 -252 -433 l-66 -32 164 -357 c90 -196
164 -359 164 -363 0 -4 -33 2 -72 12 -40 10 -122 22 -182 26 l-110 7 -145 313
-144 312 -99 0 -98 0 0 -324 0 -324 -22 1 c-13 0 -45 -3 -73 -8 -27 -4 -60 -9
-72 -10 -13 -1 -26 -5 -30 -8 -3 -4 -21 -7 -39 -7 -18 0 -34 -5 -36 -11 -3 -9
-10 -9 -26 0 l-22 12 0 494 0 494 343 3 c338 3 343 3 390 27 62 31 96 81 104
153 7 68 -19 133 -69 171 -65 50 -123 57 -460 57 l-308 0 0 143 c0 79 3 147 7
150 3 4 162 7 353 7 310 0 355 -2 422 -19z m1151 3 c207 -54 354 -224 368
-429 l4 -50 -144 -3 c-89 -2 -148 1 -156 8 -7 6 -15 28 -19 50 -14 87 -118
149 -232 137 -139 -14 -225 -141 -183 -268 28 -84 97 -124 238 -138 126 -13
207 -40 295 -98 123 -83 192 -207 203 -370 13 -194 -63 -353 -218 -453 -62
-40 -174 -76 -256 -83 l-53 -4 0 153 0 154 28 0 c47 0 131 48 160 93 39 58 38
146 -1 205 -39 60 -92 92 -174 103 -224 33 -311 68 -409 164 -95 94 -134 191
-134 335 0 238 151 432 383 495 71 19 225 19 300 -1z m765 -356 l2 -368 -165
0 -165 0 0 363 c0 200 3 367 7 371 4 3 77 5 162 4 l156 -3 3 -367z m982 -482
c0 -769 -2 -854 -16 -860 -9 -3 -73 -6 -144 -6 -71 0 -135 3 -144 6 -14 5 -16
29 -16 165 l0 159 -330 0 -330 0 0 -159 c0 -136 -2 -160 -16 -165 -31 -12
-289 -7 -302 6 -9 9 -12 94 -12 320 l0 308 495 0 495 0 0 540 0 540 160 0 160
0 0 -854z m-6866 -992 c14 -5 16 -31 16 -184 l0 -178 -312 -5 c-279 -4 -322
-7 -398 -26 -232 -59 -377 -196 -436 -411 -25 -88 -25 -316 -1 -414 27 -109
89 -217 163 -285 119 -109 260 -159 472 -168 l132 -6 0 262 0 261 -200 0 -200
0 0 190 0 190 390 0 390 0 0 -630 0 -630 -26 -6 c-39 -10 -557 3 -644 16 -406
62 -678 238 -793 515 -59 142 -74 216 -87 405 -36 547 204 910 690 1043 115
32 202 47 335 57 125 9 488 12 509 4z m932 -25 c46 -97 774 -1993 770 -2005
-4 -11 -39 -14 -190 -14 -168 0 -186 2 -195 18 -5 10 -98 267 -206 572 -108
305 -199 558 -202 563 -3 5 -97 -251 -208 -569 l-203 -579 -191 -3 c-152 -2
-193 0 -197 11 -2 7 149 409 336 893 188 483 362 933 387 999 25 66 50 126 56
133 14 17 30 10 43 -19z m2378 25 c14 -6 16 -79 16 -728 0 -808 0 -800 -70
-944 -87 -175 -259 -299 -485 -348 -95 -21 -291 -23 -380 -4 -271 56 -463 201
-546 412 -45 115 -49 168 -49 724 l0 524 190 0 189 0 3 -522 3 -523 27 -57
c68 -146 239 -227 423 -199 133 19 228 77 283 170 l27 46 3 720 c2 554 5 721
15 727 14 9 328 11 351 2z m1314 -2 c9 -7 12 -48 10 -173 l-3 -164 -605 0
-605 0 -3 164 c-2 125 1 166 10 173 7 4 276 8 598 8 322 0 591 -4 598 -8z
m900 -5 c21 -25 791 -2022 783 -2030 -4 -4 -93 -6 -197 -5 l-189 3 -205 577
c-112 318 -207 574 -210 570 -4 -4 -91 -250 -195 -547 -103 -297 -194 -555
-201 -572 l-13 -33 -190 0 c-108 0 -192 4 -196 9 -4 8 682 1798 769 2004 16
39 27 45 44 24z m1254 1 c8 -7 178 -346 377 -753 199 -407 365 -743 369 -747
4 -3 162 327 352 735 190 408 353 750 363 759 15 16 37 18 181 18 90 0 171 -3
180 -6 14 -6 16 -83 16 -775 l0 -769 -190 0 -190 0 -2 323 -3 322 -264 -525
c-145 -289 -268 -528 -275 -532 -6 -4 -81 -8 -167 -8 -136 0 -158 2 -171 18
-8 9 -138 256 -289 547 l-274 530 -3 -579 c-2 -449 -5 -582 -15 -588 -21 -13
-351 -10 -365 4 -17 17 -17 2009 0 2026 17 17 348 17 370 0z m-2562 -1382 c0
-578 -2 -644 -16 -650 -20 -8 -328 -8 -348 0 -14 6 -16 72 -16 650 l0 644 190
0 190 0 0 -644z"/>
</g>
</svg>
